<svg version="1.1" id="Layer_1" xmlns="http://www.w3.org/2000/svg" xmlns:xlink="http://www.w3.org/1999/xlink" x="0px" y="0px" width="32px" height="32px" viewBox="0 0 32 32" enable-background="new 0 0 32 32" xml:space="preserve">
  <g id="icon" style="opacity:0.1">
    <path d="M17.628,15.5c-0.113,0,-0.225,-0.013,-0.334,-0.037L14.9,16.5H6.5v14h19V15.5h-7.1H17.628z" fill="#F7DA8E"/>
    <polygon points="14.4,16.5 6.6,16.5 6.6,12.6 14.4,12.6 17,15.6" fill="#FFFFFF" stroke-linejoin="miter"/>
    <path d="M24.37,4.933c-1.19,0,-2.311,0.3,-3.298,0.826C19.749,2.664,16.728,0.5,13.21,0.5C8.863,0.5,5.275,3.804,4.712,8.086C2.287,8.749,0.5,11.008,0.5,13.694c0,2.791,1.93,5.12,4.5,5.676v-6.095C5,12.021,6.011,11,7.255,11h6.491c0.616,0,1.205,0.194,1.703,0.562l0.127,0.094L17.646,14h8.637c0.396,0,0.717,0.321,0.717,0.717v4.269c2.636,-1.069,4.5,-3.696,4.5,-6.769C31.5,8.194,28.308,4.933,24.37,4.933z" fill="#217346"/>
    <path d="M18.9,15h-1.272c-0.212,0,-0.417,-0.063,-0.594,-0.183l-2.138,-2.42l-0.042,-0.031c-0.324,-0.24,-0.707,-0.367,-1.108,-0.367H7.255C6.563,12,6,12.572,6,13.275V16v0.988V31h20V15H18.9zM7,13.275c0,-0.152,0.114,-0.275,0.255,-0.275h6.491c0.169,0,0.333,0.05,0.475,0.144L16.303,15.5h0.058l-0.708,0.362c-0.339,0.091,-0.688,0.138,-1.037,0.138H7V13.275zM25,30H7V17h7.616c0.456,0,0.912,-0.063,1.354,-0.188l0.048,-0.014l1.559,-0.799H25V30z" fill="#eab765"/>
    <path d="M24.37,4.433c-1.051,0,-2.098,0.224,-3.058,0.653C19.774,1.979,16.648,0,13.21,0C8.79,0,5,3.287,4.264,7.7C1.738,8.539,0,10.958,0,13.694c0,3.064,2.155,5.621,5,6.186v-1.022c-2.29,-0.549,-4,-2.656,-4,-5.164c0,-2.4,1.581,-4.508,3.844,-5.126l0.321,-0.088l0.043,-0.33C5.743,4.074,9.183,1,13.21,1c3.21,0,6.116,1.945,7.402,4.956c0.447,1.046,0.674,2.158,0.674,3.305h1c0,-1.123,-0.195,-2.216,-0.579,-3.257c0.839,-0.379,1.733,-0.571,2.662,-0.571c3.656,0,6.63,3.043,6.63,6.783c0,2.784,-1.649,5.181,-4,6.224v1.079c2.915,-1.095,5,-3.954,5,-7.303C32,7.925,28.577,4.433,24.37,4.433z" fill="#217346"/>
  </g>
</svg>